# xmcd
#
# Track frame offsets:
#	183
#	16475
#	27800
#	50213
#	63165
#	75143
#	90123
#	104478
#	116718
#	134018
#
# Disc length: 1971 seconds
# Revision: 5
# Processed by: cddbd v1.5.2PL0 Copyright (c) Steve Scherf et al.
# Submitted via: dBpowerAMP V12.0
#
DISCID=7807b10a
DTITLE=Sonny Terry - Black Night Road
DYEAR=1989
DGENRE=Blues
TTITLE0=Feel Like Robbin' the Grave
TTITLE1=Selling Out
TTITLE2=Black Night Road
TTITLE3=That Train and My Woman
TTITLE4=Playing With the Thing
TTITLE5=Cut Off from My Baby
TTITLE6=Mean Old Woman
TTITLE7=One Woman Man
TTITLE8=Cold Wind Blowing
TTITLE9=The Boggie
EXTD=
EXTT0=
EXTT1=
EXTT2=
EXTT3=
EXTT4=
EXTT5=
EXTT6=
EXTT7=
EXTT8=
EXTT9=
PLAYORDER=
